STARTFONT 2.1
FONT -SGI-Screen-Bold-R-Normal--9-90-72-72-M-70-ISO8859-1
SIZE 9 72 72
FONTBOUNDINGBOX 7 9 0 -1

STARTPROPERTIES 25
_DEC_DEVICE_FONTNAMES "FM=Screen-Bold"
FONTNAME_REGISTRY ""
FAMILY_NAME "Screen"
FOUNDRY "SGI"
WEIGHT_NAME "Bold"
SLANT "R"
SETWIDTH_NAME "Normal"
ADD_STYLE_NAME ""
PIXEL_SIZE 9
POINT_SIZE 90
RESOLUTION_X 72
RESOLUTION_Y 72
SPACING "M"
AVERAGE_WIDTH 70
CHARSET_REGISTRY "ISO8859"
CHARSET_ENCODING "1"
CHARSET_COLLECTIONS "ASCII ISO8859-1"
FULL_NAME "Screen Bold"
CAP_HEIGHT 7
X_HEIGHT 6
WEIGHT 10
QUAD_WIDTH 7
DEFAULT_CHAR 0
FONT_DESCENT 2
FONT_ASCENT 7
ENDPROPERTIES

CHARS 190

STARTCHAR space
ENCODING 32
SWIDTH 777 0
DWIDTH 7 0
BBX 1 1 0 0
BITMAP
00
ENDCHAR

STARTCHAR exclam
ENCODING 33
SWIDTH 777 0
DWIDTH 7 0
BBX 2 7 2 0
BITMAP
C0
C0
C0
C0
00
C0
C0
ENDCHAR

STARTCHAR quotedbl
ENCODING 34
SWIDTH 777 0
DWIDTH 7 0
BBX 5 3 1 4
BITMAP
D8
D8
D8
ENDCHAR

STARTCHAR numbersign
ENCODING 35
SWIDTH 777 0
DWIDTH 7 0
BBX 7 7 0 0
BITMAP
6C
6C
FE
6C
FE
6C
6C
ENDCHAR

STARTCHAR dollar
ENCODING 36
SWIDTH 777 0
DWIDTH 7 0
BBX 6 8 0 -1
BITMAP
30
78
B4
70
38
B4
78
30
ENDCHAR

STARTCHAR percent
ENCODING 37
SWIDTH 777 0
DWIDTH 7 0
BBX 7 7 0 0
BITMAP
6C
AC
D8
38
36
6A
6C
ENDCHAR

STARTCHAR ampersand
ENCODING 38
SWIDTH 777 0
DWIDTH 7 0
BBX 7 7 0 0
BITMAP
70
D8
F0
76
DC
CC
76
ENDCHAR

STARTCHAR quoteright
ENCODING 39
SWIDTH 777 0
DWIDTH 7 0
BBX 3 3 2 4
BITMAP
60
60
C0
ENDCHAR

STARTCHAR parenleft
ENCODING 40
SWIDTH 777 0
DWIDTH 7 0
BBX 4 8 2 -1
BITMAP
30
60
C0
C0
C0
C0
60
30
ENDCHAR

STARTCHAR parenright
ENCODING 41
SWIDTH 777 0
DWIDTH 7 0
BBX 4 8 1 -1
BITMAP
C0
60
30
30
30
30
60
C0
ENDCHAR

STARTCHAR asterisk
ENCODING 42
SWIDTH 777 0
DWIDTH 7 0
BBX 6 6 0 0
BITMAP
30
B4
78
78
B4
30
ENDCHAR

STARTCHAR plus
ENCODING 43
SWIDTH 777 0
DWIDTH 7 0
BBX 6 6 0 0
BITMAP
30
30
FC
FC
30
30
ENDCHAR

STARTCHAR comma
ENCODING 44
SWIDTH 777 0
DWIDTH 7 0
BBX 3 3 1 -1
BITMAP
60
60
C0
ENDCHAR

STARTCHAR minus
ENCODING 45
SWIDTH 777 0
DWIDTH 7 0
BBX 5 2 1 2
BITMAP
F8
F8
ENDCHAR

STARTCHAR period
ENCODING 46
SWIDTH 777 0
DWIDTH 7 0
BBX 2 2 2 0
BITMAP
C0
C0
ENDCHAR

STARTCHAR slash
ENCODING 47
SWIDTH 777 0
DWIDTH 7 0
BBX 5 8 1 -1
BITMAP
18
18
30
30
60
60
C0
C0
ENDCHAR

STARTCHAR zero
ENCODING 48
SWIDTH 777 0
DWIDTH 7 0
BBX 5 7 1 0
BITMAP
78
D8
D8
D8
D8
D8
F0
ENDCHAR

STARTCHAR one
ENCODING 49
SWIDTH 777 0
DWIDTH 7 0
BBX 4 7 2 0
BITMAP
60
E0
60
60
60
60
F0
ENDCHAR

STARTCHAR two
ENCODING 50
SWIDTH 777 0
DWIDTH 7 0
BBX 5 7 1 0
BITMAP
70
D8
18
30
60
C0
F8
ENDCHAR

STARTCHAR three
ENCODING 51
SWIDTH 777 0
DWIDTH 7 0
BBX 5 7 1 0
BITMAP
70
D8
18
70
18
D8
70
ENDCHAR

STARTCHAR four
ENCODING 52
SWIDTH 777 0
DWIDTH 7 0
BBX 6 7 0 0
BITMAP
18
38
58
D8
FC
18
18
ENDCHAR

STARTCHAR five
ENCODING 53
SWIDTH 777 0
DWIDTH 7 0
BBX 5 7 1 0
BITMAP
F8
C0
F0
18
18
D8
70
ENDCHAR

STARTCHAR six
ENCODING 54
SWIDTH 777 0
DWIDTH 7 0
BBX 5 7 1 0
BITMAP
70
C8
C0
F0
D8
D8
70
ENDCHAR

STARTCHAR seven
ENCODING 55
SWIDTH 777 0
DWIDTH 7 0
BBX 5 7 1 0
BITMAP
F8
18
30
30
60
60
60
ENDCHAR

STARTCHAR eight
ENCODING 56
SWIDTH 777 0
DWIDTH 7 0
BBX 5 7 1 0
BITMAP
70
D8
D8
70
D8
D8
70
ENDCHAR

STARTCHAR nine
ENCODING 57
SWIDTH 777 0
DWIDTH 7 0
BBX 5 7 1 0
BITMAP
70
D8
D8
78
18
98
70
ENDCHAR

STARTCHAR colon
ENCODING 58
SWIDTH 777 0
DWIDTH 7 0
BBX 2 5 2 0
BITMAP
C0
C0
00
C0
C0
ENDCHAR

STARTCHAR semicolon
ENCODING 59
SWIDTH 777 0
DWIDTH 7 0
BBX 3 6 1 -1
BITMAP
60
60
00
60
60
C0
ENDCHAR

STARTCHAR less
ENCODING 60
SWIDTH 777 0
DWIDTH 7 0
BBX 4 7 1 0
BITMAP
10
30
60
C0
60
30
10
ENDCHAR

STARTCHAR equal
ENCODING 61
SWIDTH 777 0
DWIDTH 7 0
BBX 5 5 1 1
BITMAP
F8
F8
00
F8
F8
ENDCHAR

STARTCHAR greater
ENCODING 62
SWIDTH 777 0
DWIDTH 7 0
BBX 4 7 2 0
BITMAP
80
C0
60
30
60
C0
80
ENDCHAR

STARTCHAR question
ENCODING 63
SWIDTH 777 0
DWIDTH 7 0
BBX 5 7 1 0
BITMAP
70
D8
18
70
60
00
60
ENDCHAR

STARTCHAR at
ENCODING 64
SWIDTH 777 0
DWIDTH 7 0
BBX 5 7 1 0
BITMAP
70
C8
D8
D8
D8
C0
78
ENDCHAR

STARTCHAR A
ENCODING 65
SWIDTH 777 0
DWIDTH 7 0
BBX 6 7 0 0
BITMAP
30
30
78
48
FC
CC
CC
ENDCHAR

STARTCHAR B
ENCODING 66
SWIDTH 777 0
DWIDTH 7 0
BBX 5 7 1 0
BITMAP
F0
D8
D8
F0
D8
D8
F0
ENDCHAR

STARTCHAR C
ENCODING 67
SWIDTH 777 0
DWIDTH 7 0
BBX 5 7 1 0
BITMAP
70
D8
C0
C0
C0
D8
70
ENDCHAR

STARTCHAR D
ENCODING 68
SWIDTH 777 0
DWIDTH 7 0
BBX 5 7 1 0
BITMAP
F0
D8
D8
D8
D8
D8
F0
ENDCHAR

STARTCHAR E
ENCODING 69
SWIDTH 777 0
DWIDTH 7 0
BBX 5 7 1 0
BITMAP
F8
C0
C0
F0
C0
C0
F8
ENDCHAR

STARTCHAR F
ENCODING 70
SWIDTH 777 0
DWIDTH 7 0
BBX 5 7 1 0
BITMAP
F8
C0
C0
F0
C0
C0
C0
ENDCHAR

STARTCHAR G
ENCODING 71
SWIDTH 777 0
DWIDTH 7 0
BBX 5 7 1 0
BITMAP
70
D8
C0
D8
D8
D8
68
ENDCHAR

STARTCHAR H
ENCODING 72
SWIDTH 777 0
DWIDTH 7 0
BBX 5 7 1 0
BITMAP
D8
D8
D8
F8
D8
D8
D8
ENDCHAR

STARTCHAR I
ENCODING 73
SWIDTH 777 0
DWIDTH 7 0
BBX 4 7 2 0
BITMAP
F0
60
60
60
60
60
F0
ENDCHAR

STARTCHAR J
ENCODING 74
SWIDTH 777 0
DWIDTH 7 0
BBX 5 7 1 0
BITMAP
18
18
18
18
D8
D8
70
ENDCHAR

STARTCHAR K
ENCODING 75
SWIDTH 777 0
DWIDTH 7 0
BBX 5 7 1 0
BITMAP
D8
D8
F0
E0
F0
D8
D8
ENDCHAR

STARTCHAR L
ENCODING 76
SWIDTH 777 0
DWIDTH 7 0
BBX 5 7 1 0
BITMAP
C0
C0
C0
C0
C0
C0
F8
ENDCHAR

STARTCHAR M
ENCODING 77
SWIDTH 777 0
DWIDTH 7 0
BBX 7 7 0 0
BITMAP
44
6C
7C
D6
C6
C6
C6
ENDCHAR

STARTCHAR N
ENCODING 78
SWIDTH 777 0
DWIDTH 7 0
BBX 6 7 0 0
BITMAP
CC
EC
EC
FC
DC
DC
CC
ENDCHAR

STARTCHAR O
ENCODING 79
SWIDTH 777 0
DWIDTH 7 0
BBX 5 7 1 0
BITMAP
70
D8
D8
D8
D8
D8
70
ENDCHAR

STARTCHAR P
ENCODING 80
SWIDTH 777 0
DWIDTH 7 0
BBX 5 7 1 0
BITMAP
F0
D8
D8
D8
F0
C0
C0
ENDCHAR

STARTCHAR Q
ENCODING 81
SWIDTH 777 0
DWIDTH 7 0
BBX 5 8 1 -1
BITMAP
70
D8
D8
D8
D8
F8
70
18
ENDCHAR

STARTCHAR R
ENCODING 82
SWIDTH 777 0
DWIDTH 7 0
BBX 5 7 1 0
BITMAP
F0
D8
D8
F0
D8
D8
D8
ENDCHAR

STARTCHAR S
ENCODING 83
SWIDTH 777 0
DWIDTH 7 0
BBX 5 7 1 0
BITMAP
70
D8
C0
70
18
D8
70
ENDCHAR

STARTCHAR T
ENCODING 84
SWIDTH 777 0
DWIDTH 7 0
BBX 6 7 0 0
BITMAP
FC
30
30
30
30
30
30
ENDCHAR

STARTCHAR U
ENCODING 85
SWIDTH 777 0
DWIDTH 7 0
BBX 5 7 1 0
BITMAP
D8
D8
D8
D8
D8
D8
70
ENDCHAR

STARTCHAR V
ENCODING 86
SWIDTH 777 0
DWIDTH 7 0
BBX 5 7 1 0
BITMAP
D8
D8
D8
D8
70
70
20
ENDCHAR

STARTCHAR W
ENCODING 87
SWIDTH 777 0
DWIDTH 7 0
BBX 7 7 0 0
BITMAP
C6
D6
D6
7C
7C
28
28
ENDCHAR

STARTCHAR X
ENCODING 88
SWIDTH 777 0
DWIDTH 7 0
BBX 5 7 1 0
BITMAP
D8
D8
70
20
70
D8
D8
ENDCHAR

STARTCHAR Y
ENCODING 89
SWIDTH 777 0
DWIDTH 7 0
BBX 6 7 0 0
BITMAP
CC
CC
CC
78
30
30
30
ENDCHAR

STARTCHAR Z
ENCODING 90
SWIDTH 777 0
DWIDTH 7 0
BBX 5 7 1 0
BITMAP
F8
18
30
30
60
C0
F8
ENDCHAR

STARTCHAR bracketleft
ENCODING 91
SWIDTH 777 0
DWIDTH 7 0
BBX 4 8 2 -1
BITMAP
F0
C0
C0
C0
C0
C0
C0
F0
ENDCHAR

STARTCHAR backslash
ENCODING 92
SWIDTH 777 0
DWIDTH 7 0
BBX 5 8 1 -1
BITMAP
C0
C0
60
60
30
30
18
18
ENDCHAR

STARTCHAR bracketright
ENCODING 93
SWIDTH 777 0
DWIDTH 7 0
BBX 4 8 1 -1
BITMAP
F0
30
30
30
30
30
30
F0
ENDCHAR

STARTCHAR asciicircum
ENCODING 94
SWIDTH 777 0
DWIDTH 7 0
BBX 5 3 1 4
BITMAP
20
70
D8
ENDCHAR

STARTCHAR underscore
ENCODING 95
SWIDTH 777 0
DWIDTH 7 0
BBX 7 2 0 -1
BITMAP
FE
FE
ENDCHAR

STARTCHAR quoteleft
ENCODING 96
SWIDTH 777 0
DWIDTH 7 0
BBX 3 3 1 4
BITMAP
C0
C0
60
ENDCHAR

STARTCHAR a
ENCODING 97
SWIDTH 777 0
DWIDTH 7 0
BBX 5 6 1 0
BITMAP
70
18
78
D8
D8
78
ENDCHAR

STARTCHAR b
ENCODING 98
SWIDTH 777 0
DWIDTH 7 0
BBX 5 7 1 0
BITMAP
C0
D0
F8
D8
D8
F8
D0
ENDCHAR

STARTCHAR c
ENCODING 99
SWIDTH 777 0
DWIDTH 7 0
BBX 5 6 1 0
BITMAP
70
D8
C0
C0
D8
70
ENDCHAR

STARTCHAR d
ENCODING 100
SWIDTH 777 0
DWIDTH 7 0
BBX 5 7 1 0
BITMAP
18
58
F8
D8
D8
F8
58
ENDCHAR

STARTCHAR e
ENCODING 101
SWIDTH 777 0
DWIDTH 7 0
BBX 5 6 1 0
BITMAP
70
D8
F8
C0
D8
70
ENDCHAR

STARTCHAR f
ENCODING 102
SWIDTH 777 0
DWIDTH 7 0
BBX 5 7 1 0
BITMAP
38
60
F8
60
60
60
60
ENDCHAR

STARTCHAR g
ENCODING 103
SWIDTH 777 0
DWIDTH 7 0
BBX 5 7 1 -1
BITMAP
78
D8
D8
D8
78
18
F0
ENDCHAR

STARTCHAR h
ENCODING 104
SWIDTH 777 0
DWIDTH 7 0
BBX 5 7 1 0
BITMAP
C0
D0
F8
D8
D8
D8
D8
ENDCHAR

STARTCHAR i
ENCODING 105
SWIDTH 777 0
DWIDTH 7 0
BBX 4 7 1 0
BITMAP
30
C0
30
30
30
30
30
ENDCHAR

STARTCHAR j
ENCODING 106
SWIDTH 777 0
DWIDTH 7 0
BBX 4 8 2 -1
BITMAP
30
C0
30
30
30
30
30
E0
ENDCHAR

STARTCHAR k
ENCODING 107
SWIDTH 777 0
DWIDTH 7 0
BBX 6 7 1 0
BITMAP
C0
CC
D8
F0
F0
D8
CC
ENDCHAR

STARTCHAR l
ENCODING 108
SWIDTH 777 0
DWIDTH 7 0
BBX 4 7 1 0
BITMAP
F0
30
30
30
30
30
30
ENDCHAR

STARTCHAR m
ENCODING 109
SWIDTH 777 0
DWIDTH 7 0
BBX 6 6 0 0
BITMAP
A8
FC
D4
D4
D4
D4
ENDCHAR

STARTCHAR n
ENCODING 110
SWIDTH 777 0
DWIDTH 7 0
BBX 5 6 1 0
BITMAP
D0
F8
D8
D8
D8
D8
ENDCHAR

STARTCHAR o
ENCODING 111
SWIDTH 777 0
DWIDTH 7 0
BBX 5 6 1 0
BITMAP
70
D8
D8
D8
D8
70
ENDCHAR

STARTCHAR p
ENCODING 112
SWIDTH 777 0
DWIDTH 7 0
BBX 5 7 1 -1
BITMAP
D0
F8
D8
D8
F8
D0
C0
ENDCHAR

STARTCHAR q
ENCODING 113
SWIDTH 777 0
DWIDTH 7 0
BBX 5 7 1 -1
BITMAP
58
F8
D8
D8
F8
58
18
ENDCHAR

STARTCHAR r
ENCODING 114
SWIDTH 777 0
DWIDTH 7 0
BBX 5 6 1 0
BITMAP
D8
E8
C0
C0
C0
C0
ENDCHAR

STARTCHAR s
ENCODING 115
SWIDTH 777 0
DWIDTH 7 0
BBX 5 6 1 0
BITMAP
70
C8
70
38
D8
70
ENDCHAR

STARTCHAR t
ENCODING 116
SWIDTH 777 0
DWIDTH 7 0
BBX 5 7 1 0
BITMAP
60
F8
60
60
60
60
38
ENDCHAR

STARTCHAR u
ENCODING 117
SWIDTH 777 0
DWIDTH 7 0
BBX 5 6 1 0
BITMAP
D8
D8
D8
D8
F8
58
ENDCHAR

STARTCHAR v
ENCODING 118
SWIDTH 777 0
DWIDTH 7 0
BBX 5 6 1 0
BITMAP
D8
D8
D8
50
70
20
ENDCHAR

STARTCHAR w
ENCODING 119
SWIDTH 777 0
DWIDTH 7 0
BBX 6 6 0 0
BITMAP
D4
D4
D4
D4
FC
68
ENDCHAR

STARTCHAR x
ENCODING 120
SWIDTH 777 0
DWIDTH 7 0
BBX 6 6 0 0
BITMAP
CC
78
30
78
CC
CC
ENDCHAR

STARTCHAR y
ENCODING 121
SWIDTH 777 0
DWIDTH 7 0
BBX 5 7 1 -1
BITMAP
D8
D8
D8
D8
78
18
F0
ENDCHAR

STARTCHAR z
ENCODING 122
SWIDTH 777 0
DWIDTH 7 0
BBX 5 6 1 0
BITMAP
F8
18
30
60
C0
F8
ENDCHAR

STARTCHAR braceleft
ENCODING 123
SWIDTH 777 0
DWIDTH 7 0
BBX 5 8 1 -1
BITMAP
38
60
60
C0
60
60
60
38
ENDCHAR

STARTCHAR bar
ENCODING 124
SWIDTH 777 0
DWIDTH 7 0
BBX 2 8 2 -1
BITMAP
C0
C0
C0
C0
C0
C0
C0
C0
ENDCHAR

STARTCHAR braceright
ENCODING 125
SWIDTH 777 0
DWIDTH 7 0
BBX 5 8 1 -1
BITMAP
E0
30
30
18
30
30
30
E0
ENDCHAR

STARTCHAR asciitilde
ENCODING 126
SWIDTH 777 0
DWIDTH 7 0
BBX 5 3 1 2
BITMAP
68
F8
B0
ENDCHAR

STARTCHAR exclamdown
ENCODING 161
SWIDTH 777 0
DWIDTH 7 0
BBX 2 7 2 -1
BITMAP
C0
C0
00
C0
C0
C0
C0
ENDCHAR

STARTCHAR cent
ENCODING 162
SWIDTH 777 0
DWIDTH 7 0
BBX 5 7 1 0
BITMAP
20
78
C8
C0
C8
78
20
ENDCHAR

STARTCHAR sterling
ENCODING 163
SWIDTH 777 0
DWIDTH 7 0
BBX 6 7 0 0
BITMAP
38
6C
60
F0
60
6C
F8
ENDCHAR

STARTCHAR currency
ENCODING 164
SWIDTH 777 0
DWIDTH 7 0
BBX 5 5 1 1
BITMAP
D8
70
50
70
D8
ENDCHAR

STARTCHAR yen
ENCODING 165
SWIDTH 777 0
DWIDTH 7 0
BBX 6 7 0 0
BITMAP
CC
78
30
78
30
78
30
ENDCHAR

STARTCHAR brokenbar
ENCODING 166
SWIDTH 777 0
DWIDTH 7 0
BBX 2 8 2 -1
BITMAP
C0
C0
C0
C0
00
C0
C0
C0
ENDCHAR

STARTCHAR section
ENCODING 167
SWIDTH 777 0
DWIDTH 7 0
BBX 5 8 1 -1
BITMAP
F8
80
F0
98
C8
78
08
F8
ENDCHAR

STARTCHAR dieresis
ENCODING 168
SWIDTH 777 0
DWIDTH 7 0
BBX 5 1 1 6
BITMAP
D8
ENDCHAR

STARTCHAR copyright
ENCODING 169
SWIDTH 777 0
DWIDTH 7 0
BBX 6 6 0 0
BITMAP
78
DC
EC
EC
DC
78
ENDCHAR

STARTCHAR ordfeminine
ENCODING 170
SWIDTH 777 0
DWIDTH 7 0
BBX 3 6 2 2
BITMAP
E0
20
E0
A0
00
E0
ENDCHAR

STARTCHAR guillemotleft
ENCODING 171
SWIDTH 777 0
DWIDTH 7 0
BBX 7 5 0 1
BITMAP
36
6C
D8
6C
36
ENDCHAR

STARTCHAR logicalnot
ENCODING 172
SWIDTH 777 0
DWIDTH 7 0
BBX 5 3 1 2
BITMAP
F8
F8
08
ENDCHAR

STARTCHAR hyphen
ENCODING 173
SWIDTH 777 0
DWIDTH 7 0
BBX 4 2 1 3
BITMAP
F0
F0
ENDCHAR

STARTCHAR registered
ENCODING 174
SWIDTH 777 0
DWIDTH 7 0
BBX 6 6 0 0
BITMAP
78
CC
FC
EC
DC
78
ENDCHAR

STARTCHAR macron
ENCODING 175
SWIDTH 777 0
DWIDTH 7 0
BBX 3 2 2 5
BITMAP
E0
E0
ENDCHAR

STARTCHAR degree
ENCODING 176
SWIDTH 777 0
DWIDTH 7 0
BBX 3 3 2 3
BITMAP
E0
A0
E0
ENDCHAR

STARTCHAR plusminus
ENCODING 177
SWIDTH 777 0
DWIDTH 7 0
BBX 5 7 1 0
BITMAP
20
20
F8
20
20
00
F8
ENDCHAR

STARTCHAR twosuperior
ENCODING 178
SWIDTH 777 0
DWIDTH 7 0
BBX 3 4 2 4
BITMAP
E0
20
40
E0
ENDCHAR

STARTCHAR threesuperior
ENCODING 179
SWIDTH 777 0
DWIDTH 7 0
BBX 3 4 2 4
BITMAP
E0
40
20
C0
ENDCHAR

STARTCHAR acute
ENCODING 180
SWIDTH 777 0
DWIDTH 7 0
BBX 3 2 2 5
BITMAP
60
C0
ENDCHAR

STARTCHAR mu
ENCODING 181
SWIDTH 777 0
DWIDTH 7 0
BBX 5 7 1 -1
BITMAP
D8
D8
D8
D8
F8
D8
C0
ENDCHAR

STARTCHAR paragraph
ENCODING 182
SWIDTH 777 0
DWIDTH 7 0
BBX 7 8 0 0
BITMAP
7E
F6
B6
F6
76
36
36
36
ENDCHAR

STARTCHAR periodcentered
ENCODING 183
SWIDTH 777 0
DWIDTH 7 0
BBX 2 2 2 3
BITMAP
C0
C0
ENDCHAR

STARTCHAR cedilla
ENCODING 184
SWIDTH 777 0
DWIDTH 7 0
BBX 2 2 2 -1
BITMAP
40
C0
ENDCHAR

STARTCHAR onesuperior
ENCODING 185
SWIDTH 777 0
DWIDTH 7 0
BBX 3 4 2 4
BITMAP
C0
40
40
E0
ENDCHAR

STARTCHAR ordmasculine
ENCODING 186
SWIDTH 777 0
DWIDTH 7 0
BBX 3 6 2 2
BITMAP
E0
A0
A0
E0
00
E0
ENDCHAR

STARTCHAR guillemotright
ENCODING 187
SWIDTH 777 0
DWIDTH 7 0
BBX 7 5 0 1
BITMAP
D8
6C
36
6C
D8
ENDCHAR

STARTCHAR onequarter
ENCODING 188
SWIDTH 777 0
DWIDTH 7 0
BBX 5 7 1 1
BITMAP
C0
48
50
E8
58
B8
08
ENDCHAR

STARTCHAR onehalf
ENCODING 189
SWIDTH 777 0
DWIDTH 7 0
BBX 5 8 1 0
BITMAP
C0
48
50
E0
78
88
10
38
ENDCHAR

STARTCHAR threequarters
ENCODING 190
SWIDTH 777 0
DWIDTH 7 0
BBX 5 7 1 1
BITMAP
E0
48
30
E8
58
B8
08
ENDCHAR

STARTCHAR questiondown
ENCODING 191
SWIDTH 777 0
DWIDTH 7 0
BBX 5 7 0 0
BITMAP
30
00
30
70
C0
D8
70
ENDCHAR

STARTCHAR Agrave
ENCODING 192
SWIDTH 777 0
DWIDTH 7 0
BBX 6 8 0 0
BITMAP
60
30
00
30
78
48
FC
CC
ENDCHAR

STARTCHAR Aacute
ENCODING 193
SWIDTH 777 0
DWIDTH 7 0
BBX 6 8 0 0
BITMAP
18
30
00
30
78
48
FC
CC
ENDCHAR

STARTCHAR Acircumflex
ENCODING 194
SWIDTH 777 0
DWIDTH 7 0
BBX 6 8 0 0
BITMAP
10
28
00
30
78
48
FC
CC
ENDCHAR

STARTCHAR Atilde
ENCODING 195
SWIDTH 777 0
DWIDTH 7 0
BBX 6 8 0 0
BITMAP
34
58
00
30
78
48
FC
CC
ENDCHAR

STARTCHAR Adieresis
ENCODING 196
SWIDTH 777 0
DWIDTH 7 0
BBX 6 7 0 0
BITMAP
6C
00
30
78
48
FC
CC
ENDCHAR

STARTCHAR Aring
ENCODING 197
SWIDTH 777 0
DWIDTH 7 0
BBX 6 8 0 0
BITMAP
30
48
30
30
78
48
FC
CC
ENDCHAR

STARTCHAR AE
ENCODING 198
SWIDTH 777 0
DWIDTH 7 0
BBX 7 7 0 0
BITMAP
3E
78
D8
DC
F8
D8
DE
ENDCHAR

STARTCHAR Ccedilla
ENCODING 199
SWIDTH 777 0
DWIDTH 7 0
BBX 5 8 1 -1
BITMAP
70
D8
C0
C0
C0
D8
70
60
ENDCHAR

STARTCHAR Egrave
ENCODING 200
SWIDTH 777 0
DWIDTH 7 0
BBX 5 8 1 0
BITMAP
60
30
00
F8
C0
F0
C0
F8
ENDCHAR

STARTCHAR Eacute
ENCODING 201
SWIDTH 777 0
DWIDTH 7 0
BBX 5 8 1 0
BITMAP
30
60
00
F8
C0
F0
C0
F8
ENDCHAR

STARTCHAR Ecircumflex
ENCODING 202
SWIDTH 777 0
DWIDTH 7 0
BBX 5 8 1 0
BITMAP
20
50
00
F8
C0
F0
C0
F8
ENDCHAR

STARTCHAR Edieresis
ENCODING 203
SWIDTH 777 0
DWIDTH 7 0
BBX 5 7 1 0
BITMAP
D8
00
F8
C0
F0
C0
F8
ENDCHAR

STARTCHAR Igrave
ENCODING 204
SWIDTH 777 0
DWIDTH 7 0
BBX 4 8 1 0
BITMAP
C0
60
00
F0
60
60
60
F0
ENDCHAR

STARTCHAR Iacute
ENCODING 205
SWIDTH 777 0
DWIDTH 7 0
BBX 4 8 1 0
BITMAP
30
60
00
F0
60
60
60
F0
ENDCHAR

STARTCHAR Icircumflex
ENCODING 206
SWIDTH 777 0
DWIDTH 7 0
BBX 4 8 1 0
BITMAP
20
50
00
F0
60
60
60
F0
ENDCHAR

STARTCHAR Idieresis
ENCODING 207
SWIDTH 777 0
DWIDTH 7 0
BBX 5 7 1 0
BITMAP
D8
00
F0
60
60
60
F0
ENDCHAR

STARTCHAR Eth
ENCODING 208
SWIDTH 777 0
DWIDTH 7 0
BBX 6 7 0 0
BITMAP
78
6C
6C
F4
6C
6C
78
ENDCHAR

STARTCHAR Ntilde
ENCODING 209
SWIDTH 777 0
DWIDTH 7 0
BBX 6 8 0 0
BITMAP
34
58
00
CC
EC
FC
DC
CC
ENDCHAR

STARTCHAR Ograve
ENCODING 210
SWIDTH 777 0
DWIDTH 7 0
BBX 5 8 1 0
BITMAP
60
30
00
70
D8
D8
D8
70
ENDCHAR

STARTCHAR Oacute
ENCODING 211
SWIDTH 777 0
DWIDTH 7 0
BBX 5 8 1 0
BITMAP
30
60
00
70
D8
D8
D8
70
ENDCHAR

STARTCHAR Ocircumflex
ENCODING 212
SWIDTH 777 0
DWIDTH 7 0
BBX 5 8 1 0
BITMAP
20
50
00
70
D8
D8
D8
70
ENDCHAR

STARTCHAR Otilde
ENCODING 213
SWIDTH 777 0
DWIDTH 7 0
BBX 5 8 1 0
BITMAP
68
B0
00
70
D8
D8
D8
70
ENDCHAR

STARTCHAR Odieresis
ENCODING 214
SWIDTH 777 0
DWIDTH 7 0
BBX 5 7 1 0
BITMAP
D8
00
70
D8
D8
D8
70
ENDCHAR

STARTCHAR multiply
ENCODING 215
SWIDTH 777 0
DWIDTH 7 0
BBX 5 5 1 1
BITMAP
88
D8
70
D8
88
ENDCHAR

STARTCHAR Oslash
ENCODING 216
SWIDTH 777 0
DWIDTH 7 0
BBX 7 5 0 0
BITMAP
3A
6C
7C
6C
B8
ENDCHAR

STARTCHAR Ugrave
ENCODING 217
SWIDTH 777 0
DWIDTH 7 0
BBX 5 8 1 0
BITMAP
60
30
00
D8
D8
D8
D8
70
ENDCHAR

STARTCHAR Uacute
ENCODING 218
SWIDTH 777 0
DWIDTH 7 0
BBX 5 8 1 0
BITMAP
30
60
00
D8
D8
D8
D8
70
ENDCHAR

STARTCHAR Ucircumflex
ENCODING 219
SWIDTH 777 0
DWIDTH 7 0
BBX 5 8 1 0
BITMAP
20
50
00
D8
D8
D8
D8
70
ENDCHAR

STARTCHAR Udieresis
ENCODING 220
SWIDTH 777 0
DWIDTH 7 0
BBX 5 7 1 0
BITMAP
D8
00
D8
D8
D8
D8
70
ENDCHAR

STARTCHAR Yacute
ENCODING 221
SWIDTH 777 0
DWIDTH 7 0
BBX 6 8 0 0
BITMAP
18
30
00
CC
48
78
30
30
ENDCHAR

STARTCHAR Thorn
ENCODING 222
SWIDTH 777 0
DWIDTH 7 0
BBX 5 7 1 0
BITMAP
C0
F0
D8
D8
F0
C0
C0
ENDCHAR

STARTCHAR germandbls
ENCODING 223
SWIDTH 777 0
DWIDTH 7 0
BBX 5 7 1 0
BITMAP
70
D8
D8
F0
D8
D8
D0
ENDCHAR

STARTCHAR agrave
ENCODING 224
SWIDTH 777 0
DWIDTH 7 0
BBX 5 8 1 0
BITMAP
60
30
00
70
18
78
D8
78
ENDCHAR

STARTCHAR aacute
ENCODING 225
SWIDTH 777 0
DWIDTH 7 0
BBX 5 8 1 0
BITMAP
30
60
00
70
18
78
D8
78
ENDCHAR

STARTCHAR acircumflex
ENCODING 226
SWIDTH 777 0
DWIDTH 7 0
BBX 5 8 1 0
BITMAP
20
50
00
70
18
78
D8
78
ENDCHAR

STARTCHAR atilde
ENCODING 227
SWIDTH 777 0
DWIDTH 7 0
BBX 5 8 1 0
BITMAP
68
B0
00
70
18
78
D8
78
ENDCHAR

STARTCHAR adieresis
ENCODING 228
SWIDTH 777 0
DWIDTH 7 0
BBX 5 7 1 0
BITMAP
D8
00
70
18
78
D8
78
ENDCHAR

STARTCHAR aring
ENCODING 229
SWIDTH 777 0
DWIDTH 7 0
BBX 5 8 1 0
BITMAP
30
48
30
70
18
78
D8
78
ENDCHAR

STARTCHAR ae
ENCODING 230
SWIDTH 777 0
DWIDTH 7 0
BBX 5 5 1 0
BITMAP
F8
28
F8
A0
D8
ENDCHAR

STARTCHAR ccedilla
ENCODING 231
SWIDTH 777 0
DWIDTH 7 0
BBX 5 6 1 -1
BITMAP
70
D8
C0
D8
70
60
ENDCHAR

STARTCHAR egrave
ENCODING 232
SWIDTH 777 0
DWIDTH 7 0
BBX 5 8 1 0
BITMAP
60
30
00
70
D8
F8
C0
78
ENDCHAR

STARTCHAR eacute
ENCODING 233
SWIDTH 777 0
DWIDTH 7 0
BBX 5 8 1 0
BITMAP
30
60
00
70
D8
F8
C0
78
ENDCHAR

STARTCHAR ecircumflex
ENCODING 234
SWIDTH 777 0
DWIDTH 7 0
BBX 5 8 1 0
BITMAP
20
50
00
70
D8
F8
C0
78
ENDCHAR

STARTCHAR edieresis
ENCODING 235
SWIDTH 777 0
DWIDTH 7 0
BBX 5 7 1 0
BITMAP
D8
00
70
D8
F8
C0
78
ENDCHAR

STARTCHAR igrave
ENCODING 236
SWIDTH 777 0
DWIDTH 7 0
BBX 4 8 1 0
BITMAP
60
30
00
C0
30
30
30
30
ENDCHAR

STARTCHAR iacute
ENCODING 237
SWIDTH 777 0
DWIDTH 7 0
BBX 4 8 1 0
BITMAP
30
60
00
C0
30
30
30
30
ENDCHAR

STARTCHAR icircumflex
ENCODING 238
SWIDTH 777 0
DWIDTH 7 0
BBX 4 8 1 0
BITMAP
20
50
00
C0
30
30
30
30
ENDCHAR

STARTCHAR idieresis
ENCODING 239
SWIDTH 777 0
DWIDTH 7 0
BBX 5 7 1 0
BITMAP
D8
00
C0
30
30
30
30
ENDCHAR

STARTCHAR eth
ENCODING 240
SWIDTH 777 0
DWIDTH 7 0
BBX 5 7 1 0
BITMAP
D0
60
B0
78
D8
D8
70
ENDCHAR

STARTCHAR ntilde
ENCODING 241
SWIDTH 777 0
DWIDTH 7 0
BBX 5 8 1 0
BITMAP
68
B0
00
D0
F8
D8
D8
D8
ENDCHAR

STARTCHAR ograve
ENCODING 242
SWIDTH 777 0
DWIDTH 7 0
BBX 5 7 1 0
BITMAP
60
30
00
70
D8
D8
70
ENDCHAR

STARTCHAR oacute
ENCODING 243
SWIDTH 777 0
DWIDTH 7 0
BBX 5 7 1 0
BITMAP
30
60
00
70
D8
D8
70
ENDCHAR

STARTCHAR ocircumflex
ENCODING 244
SWIDTH 777 0
DWIDTH 7 0
BBX 5 7 1 0
BITMAP
20
50
00
70
D8
D8
70
ENDCHAR

STARTCHAR otilde
ENCODING 245
SWIDTH 777 0
DWIDTH 7 0
BBX 5 7 1 0
BITMAP
68
B0
00
70
D8
D8
70
ENDCHAR

STARTCHAR odieresis
ENCODING 246
SWIDTH 777 0
DWIDTH 7 0
BBX 5 6 1 0
BITMAP
D8
00
70
D8
D8
70
ENDCHAR

STARTCHAR divide
ENCODING 247
SWIDTH 777 0
DWIDTH 7 0
BBX 6 7 0 0
BITMAP
30
30
00
FC
00
30
30
ENDCHAR

STARTCHAR oslash
ENCODING 248
SWIDTH 777 0
DWIDTH 7 0
BBX 7 4 0 0
BITMAP
3A
7C
6C
B8
ENDCHAR

STARTCHAR ugrave
ENCODING 249
SWIDTH 777 0
DWIDTH 7 0
BBX 5 8 1 0
BITMAP
60
30
00
D8
D8
D8
F8
58
ENDCHAR

STARTCHAR uacute
ENCODING 250
SWIDTH 777 0
DWIDTH 7 0
BBX 5 8 1 0
BITMAP
30
60
00
D8
D8
D8
F8
58
ENDCHAR

STARTCHAR ucircumflex
ENCODING 251
SWIDTH 777 0
DWIDTH 7 0
BBX 5 8 1 0
BITMAP
20
50
00
D8
D8
D8
F8
58
ENDCHAR

STARTCHAR udieresis
ENCODING 252
SWIDTH 777 0
DWIDTH 7 0
BBX 5 7 1 0
BITMAP
D8
00
D8
D8
D8
F8
58
ENDCHAR

STARTCHAR yacute
ENCODING 253
SWIDTH 777 0
DWIDTH 7 0
BBX 5 9 1 -1
BITMAP
30
60
00
D8
D8
D8
78
18
F0
ENDCHAR

STARTCHAR thorn
ENCODING 254
SWIDTH 777 0
DWIDTH 7 0
BBX 6 8 0 -1
BITMAP
E0
78
6C
6C
6C
78
60
F0
ENDCHAR

STARTCHAR ydieresis
ENCODING 255
SWIDTH 777 0
DWIDTH 7 0
BBX 5 8 1 -1
BITMAP
D8
00
D8
D8
D8
78
18
F0
ENDCHAR
ENDFONT
